<svg xmlns="http://www.w3.org/2000/svg" width="64" height="64" viewBox="0 0 64 64">
    <defs>
        <linearGradient id="5qn2520lza" x1="50%" x2="50%" y1="0%" y2="100%">
            <stop offset="0%" stop-color="#52C9FF"/>
            <stop offset="100%" stop-color="#8DE0FF"/>
        </linearGradient>
        <linearGradient id="ivd9jd6yib" x1="0%" x2="100%" y1="50%" y2="50%">
            <stop offset="0%" stop-color="#00B8FF"/>
            <stop offset="100%" stop-color="#009DE3"/>
        </linearGradient>
        <linearGradient id="s7my9l5cwc" x1="50%" x2="50%" y1="0%" y2="100%">
            <stop offset="0%" stop-color="#12B4FE"/>
            <stop offset="100%" stop-color="#32C8FF"/>
        </linearGradient>
        <linearGradient id="7f8pj3tmjd" x1="50%" x2="50%" y1="0%" y2="100%">
            <stop offset="0%" stop-color="#FFD755"/>
            <stop offset="100%" stop-color="#FFC500"/>
        </linearGradient>
    </defs>
    <g fill="none" fill-rule="evenodd">
        <path fill="#E7F3F9" d="M48.98 3.916c-1.294-.689-2.663-1.242-4.106-1.638-9.832-2.696-23.467-3.632-32.88.764-2.885 1.347-5.388 3.373-7.196 5.99-4.095 5.93-6.739 11.993-3.014 18.873 2.413 4.458 6.746 6.616 9.809 10.407 5.809 7.19 3.875 18.463 12.739 23.572 6.5 3.747 14.803 1.966 21.235-1.077 6.488-3.07 12.1-8.234 15.341-14.638.787-1.553 1.437-3.173 1.934-4.84 3.73-12.517-1.726-30.948-13.862-37.413"/>
        <path fill="#EA9B00" fill-rule="nonzero" d="M0 36h32V24.333c0-1.657-1.343-3-3-3H3c-1.657 0-3 1.343-3 3V36z"/>
        <g>
            <path fill="url(#5qn2520lza)" d="M0 0L32 0 42.667 10.667 42.667 62.667 0 62.667z" transform="translate(10.667)"/>
            <path fill="url(#ivd9jd6yib)" d="M32 0l10.667 10.667H35c-1.657 0-3-1.343-3-3V0z" transform="translate(10.667)"/>
        </g>
        <g>
            <path fill="url(#s7my9l5cwc)" d="M21.614 15.982c-.568 1.369-.097 3.472-1.129 4.503-1.032 1.032-3.134.56-4.503 1.128C14.66 22.161 13.519 24 12 24c-1.519 0-2.661-1.839-3.982-2.387-1.369-.567-3.472-.096-4.503-1.128-1.032-1.032-.56-3.134-1.129-4.503C1.84 14.66 0 13.519 0 12c0-1.519 1.839-2.661 2.386-3.982.568-1.369.097-3.472 1.129-4.504 1.031-1.031 3.134-.56 4.503-1.128C9.34 1.84 10.481 0 12 0c1.519 0 2.661 1.839 3.982 2.386 1.369.568 3.472.097 4.503 1.129 1.032 1.031.561 3.134 1.129 4.503C22.16 9.34 24 10.481 24 12c0 1.519-1.839 2.661-2.386 3.982z" transform="translate(20 5.333)"/>
            <g fill="#FFF">
                <path fill-rule="nonzero" d="M7.636 2.182c.603 0 1.091.488 1.091 1.09 0 .56-.42 1.021-.963 1.084l-.128.008h-4.09c-.754 0-1.364.61-1.364 1.363 0 .706.536 1.287 1.224 1.357l.14.007h1.636c1.958 0 3.545 1.587 3.545 3.545 0 1.89-1.48 3.436-3.344 3.54l-.201.006H1.09C.488 14.182 0 13.693 0 13.09c0-.56.421-1.02.964-1.084L1.09 12h4.09c.754 0 1.364-.61 1.364-1.364 0-.706-.536-1.286-1.224-1.356l-.14-.007H3.546C1.587 9.273 0 7.685 0 5.727c0-1.89 1.48-3.435 3.344-3.54l.201-.005h4.091z" transform="translate(20 5.333) translate(7.636 4.364)"/>
                <path d="M4.09 0h.546c.452 0 .819.366.819.818v2.455H3.273V.818c0-.452.366-.818.818-.818zM4.636 16.364h-.545c-.452 0-.818-.367-.818-.819v-2.454h2.182v2.454c0 .452-.367.819-.819.819z" transform="translate(20 5.333) translate(7.636 4.364)"/>
            </g>
        </g>
        <path fill="url(#7f8pj3tmjd)" d="M0 28h61c1.657 0 3 1.343 3 3v30c0 1.657-1.343 3-3 3H3c-1.657 0-3-1.343-3-3V28z"/>
        <path fill="#EA9B00" fill-rule="nonzero" d="M37.39 39.904c.79-.773 2.056-.759 2.829.03.724.741.757 1.9.108 2.679l-.14.15-9.54 9.333c-.752.736-1.932.757-2.709.082l-.15-.144-3.915-4.182c-.755-.806-.713-2.072.093-2.827.756-.707 1.916-.715 2.68-.049l.147.142 2.518 2.689 8.08-7.903z"/>
    </g>
</svg>
