<?xml version="1.0" encoding="UTF-8"?><svg xmlns="http://www.w3.org/2000/svg" viewBox="0 0 73 30"><g fill="none" fill-rule="evenodd"><path fill="#84B269" fill-rule="nonzero" d="M18.912 22.061c0 .755.146 1.461.43 2.126a5.62 5.62 0 0 0 1.173 1.738 5.6 5.6 0 0 0 1.732 1.176 5.19 5.19 0 0 0 2.12.439c1.029 0 1.96-.252 2.793-.755a5.461 5.461 0 0 0 1.96-1.98.949.949 0 0 1 .623-.447 1.01 1.01 0 0 1 .752.097.985.985 0 0 1 .446.641c.064.277.024.544-.13.804-.64 1.096-1.538 1.973-2.68 2.638-1.14.665-2.403.999-3.771.999a7.463 7.463 0 0 1-2.906-.577 7.475 7.475 0 0 1-2.372-1.591 7.372 7.372 0 0 1-1.586-2.378 7.341 7.341 0 0 1-.575-2.914v-5.82a7.5 7.5 0 0 1 .575-2.913 7.505 7.505 0 0 1 1.586-2.378 7.676 7.676 0 0 1 2.372-1.608 7.168 7.168 0 0 1 2.906-.592 7.19 7.19 0 0 1 3.772 1.03c1.141.69 2.04 1.592 2.679 2.704.13.235.162.495.113.77a.94.94 0 0 1-.429.642 1.01 1.01 0 0 1-.752.097 1.092 1.092 0 0 1-.656-.478 5.7 5.7 0 0 0-1.959-1.997 5.188 5.188 0 0 0-2.76-.771 5.19 5.19 0 0 0-2.12.438 5.507 5.507 0 0 0-1.733 1.193 5.79 5.79 0 0 0-1.174 1.753 5.227 5.227 0 0 0-.429 2.127v5.787zm13.51-.414c0-1.047.194-2.045.59-2.979a7.818 7.818 0 0 1 4.056-4.131 7.54 7.54 0 0 1 2.955-.641c.34 0 .614.097.817.292.203.194.307.43.307.706a.945.945 0 0 1-.307.706c-.203.195-.477.292-.817.292a5.838 5.838 0 0 0-3.982 1.737 5.648 5.648 0 0 0-1.635 4.026l-.001 6.883a.964.964 0 0 1-.291.706.958.958 0 0 1-.705.293.958.958 0 0 1-.704-.293.964.964 0 0 1-.291-.706v-6.891h.008zm11.113 2.678a5.584 5.584 0 0 0 1.199 1.64 6.1 6.1 0 0 0 1.65 1.096 5.726 5.726 0 0 0 1.935.47 5.628 5.628 0 0 0 2.04-.235 5.47 5.47 0 0 0 1.991-1.063 5.973 5.973 0 0 0 1.4-1.688.946.946 0 0 1 .591-.48.957.957 0 0 1 .761.073.95.95 0 0 1 .478.593.964.964 0 0 1-.073.763c-.445.966-1.044 1.737-1.797 2.314-.753.576-1.684 1.03-2.784 1.371a7.81 7.81 0 0 1-3.036.317 7.642 7.642 0 0 1-2.816-.828 7.644 7.644 0 0 1-2.307-1.85 7.611 7.611 0 0 1-1.474-2.777c-.307-1.022-.413-2.045-.3-3.051a7.657 7.657 0 0 1 .859-2.817 8.092 8.092 0 0 1 1.878-2.321 8.549 8.549 0 0 1 2.76-1.567 7.04 7.04 0 0 1 2.954-.26 8.182 8.182 0 0 1 2.793.87 7.783 7.783 0 0 1 2.307 1.817 7.863 7.863 0 0 1 1.513 2.63c.146.333.138.633-.016.877-.161.251-.364.413-.607.487l-11.899 3.62zm3.489-8.083a5.578 5.578 0 0 0-1.813.933c-.534.422-.98.9-1.336 1.453a5.43 5.43 0 0 0-.76 1.794 6.294 6.294 0 0 0-.122 1.988l10.838-3.295a5.805 5.805 0 0 0-2.857-2.647 6.268 6.268 0 0 0-1.918-.462 5.452 5.452 0 0 0-2.032.236zM65.05 13.96c1.198.04 2.291.349 3.27.917.98.568 1.83 1.242 2.534 2.013V9.78c0-.276.097-.512.291-.706a.958.958 0 0 1 .705-.293c.275 0 .51.097.704.293.194.194.291.43.291.706v11.996c0 1.112-.202 2.143-.607 3.084a7.469 7.469 0 0 1-1.667 2.443 7.555 7.555 0 0 1-2.47 1.608 7.71 7.71 0 0 1-2.986.576 7.642 7.642 0 0 1-3.052-.609 7.702 7.702 0 0 1-2.452-1.672 8.004 8.004 0 0 1-1.651-2.46 7.399 7.399 0 0 1-.607-2.978c0-1.072.21-2.078.623-3.028.42-.941.98-1.769 1.683-2.475a8.073 8.073 0 0 1 2.453-1.688 7.148 7.148 0 0 1 2.938-.617zm5.804 7.816a6.532 6.532 0 0 0-.526-2.313 5.819 5.819 0 0 0-1.238-1.834 5.613 5.613 0 0 0-1.797-1.21 5.496 5.496 0 0 0-2.186-.43 5.79 5.79 0 0 0-2.242.446 5.78 5.78 0 0 0-1.846 1.242 5.799 5.799 0 0 0-1.238 1.85 5.721 5.721 0 0 0-.453 2.25c0 .794.145 1.541.453 2.23a5.818 5.818 0 0 0 3.084 3.077c.704.3 1.457.447 2.242.447a5.5 5.5 0 0 0 2.226-.447 5.8 5.8 0 0 0 1.83-1.242A5.818 5.818 0 0 0 70.4 24.01a5.45 5.45 0 0 0 .453-2.232z"/><path fill="#6C6C6F" d="M2.578 24.325a5.599 5.599 0 0 0 1.198 1.64 6.1 6.1 0 0 0 1.65 1.096 5.73 5.73 0 0 0 1.936.47 5.63 5.63 0 0 0 2.04-.235 5.474 5.474 0 0 0 1.99-1.063 5.973 5.973 0 0 0 1.401-1.688.946.946 0 0 1 .591-.48.957.957 0 0 1 .76.073c.243.13.397.326.478.593a.966.966 0 0 1-.072.763c-.446.966-1.045 1.737-1.797 2.314-.753.576-1.684 1.03-2.785 1.371a7.81 7.81 0 0 1-3.036.317 7.645 7.645 0 0 1-2.816-.828 7.65 7.65 0 0 1-2.307-1.85c-.664-.78-1.142-1.721-1.465-2.784a7.586 7.586 0 0 1-.3-3.052 7.657 7.657 0 0 1 .858-2.817c.462-.869 1.093-1.64 1.878-2.322a8.549 8.549 0 0 1 2.76-1.566 7.04 7.04 0 0 1 2.955-.26 8.17 8.17 0 0 1 2.792.87 7.791 7.791 0 0 1 2.307 1.817 7.863 7.863 0 0 1 1.514 2.63c.146.332.138.633-.016.876-.162.252-.365.414-.607.487L2.578 24.325zm3.489-8.083a5.578 5.578 0 0 0-1.813.933 6.17 6.17 0 0 0-1.344 1.453 5.43 5.43 0 0 0-.761 1.794 6.294 6.294 0 0 0-.122 1.988l10.839-3.295a5.805 5.805 0 0 0-2.857-2.647 6.268 6.268 0 0 0-1.919-.462 5.41 5.41 0 0 0-2.023.236zM40.54 5.13a.118.118 0 0 1 0-.17l.26-.301c.048-.049.121-.033.17 0a2.904 2.904 0 0 0 1.837.665c.987 0 1.473-.438 1.473-1.095 0-.568-.25-.885-1.295-.998l-.567-.057c-1.06-.106-1.65-.617-1.65-1.51 0-1.039.744-1.656 1.99-1.656a3.53 3.53 0 0 1 1.886.544.127.127 0 0 1 .024.17l-.21.285c-.032.057-.105.073-.17.032-.364-.21-.971-.438-1.57-.438-.866 0-1.32.381-1.32 1.015 0 .56.349.86 1.304.95l.566.056c1.101.105 1.636.641 1.636 1.526 0 1.08-.762 1.77-2.17 1.77a3.407 3.407 0 0 1-2.194-.788zm5.934-.706c-.106-.35-.17-.739-.17-1.461 0-.714.057-1.129.17-1.477C46.78.536 47.55.008 48.578.008s1.805.528 2.113 1.478c.121.357.17.722.17 1.51 0 .072-.049.121-.13.121h-3.69c-.05 0-.073.033-.073.081 0 .479.032.738.121.999.259.746.833 1.104 1.603 1.104.736 0 1.246-.309 1.578-.723.049-.057.105-.073.17-.024l.275.251c.057.049.057.106.008.17-.413.56-1.125.95-2.064.95-1.117 0-1.861-.52-2.185-1.501zm3.658-1.85c.049 0 .073-.025.073-.074 0-.349-.032-.592-.105-.82-.227-.706-.77-1.07-1.522-1.07-.736 0-1.279.365-1.506 1.071-.072.228-.104.48-.104.82 0 .049.024.073.072.073h3.092zm2.64 3.23c-.074 0-.122-.049-.122-.122V.243c0-.073.048-.121.121-.121h.405c.073 0 .121.048.121.121v.722h.008c.21-.559.72-.965 1.522-.965.453 0 .866.154 1.141.39.057.032.073.097.025.154l-.235.333c-.048.056-.105.056-.178.024a1.58 1.58 0 0 0-.899-.284c-.995 0-1.376.869-1.376 1.916v3.14c0 .073-.048.122-.12.122h-.414v.009zm4.742-4.773c-.056.049-.129.049-.178-.008l-.202-.3c-.033-.057-.024-.122.033-.17.404-.35 1.011-.545 1.804-.545 1.474 0 2.064.487 2.064 1.883V5.69c0 .073-.048.121-.121.121h-.372c-.073 0-.122-.048-.122-.121v-.592h-.008c-.227.478-.834.835-1.756.835-1.142 0-1.902-.568-1.902-1.68 0-1.128.769-1.68 2.144-1.68h1.433c.049 0 .073-.024.073-.073v-.584c0-.926-.324-1.307-1.473-1.307-.68 0-1.085.154-1.417.422zm2.898 3.028v-.87c0-.048-.024-.073-.073-.073h-1.351c-1.126 0-1.603.366-1.603 1.12 0 .714.502 1.096 1.4 1.096.972 0 1.627-.503 1.627-1.274zm2.299 1.071a.118.118 0 0 1 0-.17l.26-.301c.048-.049.12-.033.17 0a2.904 2.904 0 0 0 1.836.665c.988 0 1.473-.438 1.473-1.095 0-.568-.25-.885-1.294-.998l-.567-.057c-1.053-.106-1.651-.617-1.651-1.51 0-1.039.744-1.656 1.99-1.656a3.53 3.53 0 0 1 1.887.544.127.127 0 0 1 .024.17l-.21.285c-.033.057-.106.073-.17.032-.365-.21-.972-.438-1.57-.438-.867 0-1.32.381-1.32 1.015 0 .56.348.86 1.303.95l.567.056c1.1.105 1.635.641 1.635 1.526 0 1.08-.761 1.77-2.17 1.77a3.407 3.407 0 0 1-2.193-.788zm6.605-4.099c-.056.049-.13.049-.178-.008l-.202-.3c-.033-.057-.025-.122.032-.17.405-.35 1.012-.545 1.805-.545 1.473 0 2.064.487 2.064 1.883V5.69c0 .073-.049.121-.122.121h-.38c-.073 0-.121-.048-.121-.121v-.592h-.008c-.227.478-.834.835-1.757.835-1.14 0-1.902-.568-1.902-1.68 0-1.128.769-1.68 2.145-1.68h1.433c.048 0 .073-.024.073-.073v-.584c0-.926-.324-1.307-1.474-1.307-.671 0-1.076.154-1.408.422zm2.898 3.028v-.87c0-.048-.024-.073-.073-.073h-1.352c-1.125 0-1.602.366-1.602 1.12 0 .714.501 1.096 1.4 1.096.971 0 1.627-.503 1.627-1.274z"/></g></svg>