<svg width="28" height="28" viewBox="0 0 28 28" version="1.1" xmlns="http://www.w3.org/2000/svg" xmlns:xlink="http://www.w3.org/1999/xlink">
<title>pink-facebook</title>
<desc>Created using Figma</desc>
<g id="Canvas" transform="translate(34891 -2685)">
<g id="pink-facebook">
<use xlink:href="#path0_fill" transform="translate(-34891 2685)" fill="#009ee3"/>
</g>
</g>
<defs>
<path id="path0_fill" d="M 26.4474 -1.60077e-07L 1.54215 -1.60077e-07C 0.692393 -1.60077e-07 -2.56124e-06 0.692394 -2.56124e-06 1.54215L -2.56124e-06 26.4474C -2.56124e-06 27.2971 0.692393 27.9895 1.54215 27.9895L 14.9494 27.9895L 14.9494 17.1525L 11.2986 17.1525L 11.2986 12.9247L 14.9494 12.9247L 14.9494 9.80892C 14.9494 6.18958 17.163 4.2278 20.3837 4.2278C 21.9258 4.2278 23.2582 4.3432 23.6463 4.39565L 23.6463 8.17235L 21.4118 8.17235C 19.6598 8.17235 19.3136 9.00112 19.3136 10.2286L 19.3136 12.9247L 23.4994 12.9247L 22.9539 17.1525L 19.3136 17.1525L 19.3136 28L 26.4474 28C 27.2971 28 27.9895 27.3076 27.9895 26.4578L 27.9895 1.54215C 27.9895 0.681904 27.3076 -1.60077e-07 26.4474 -1.60077e-07Z"/>
</defs>
</svg>
