<?xml version="1.0" encoding="UTF-8"?>
<svg width="180px" height="180px" viewBox="0 0 180 180" version="1.1" xmlns="http://www.w3.org/2000/svg" xmlns:xlink="http://www.w3.org/1999/xlink">
    <g id="Final" stroke="none" stroke-width="1" fill="none" fill-rule="evenodd">
        <g id="bubble_whatsapp">
            <circle id="Oval" fill="#009F58" cx="90" cy="90" r="90"></circle>
            <g id="icon/whatsapp" transform="translate(36.562500, 36.562500)" fill="#FFFFFF">
                <path d="M82.8452083,65.5904167 C82.5120833,65.0446875 81.6332292,64.7169792 80.3223958,64.0642708 C79.0034375,63.4129167 72.5251042,60.2482292 71.32125,59.8135417 C70.1146875,59.3788542 69.2304167,59.1608333 68.3583333,60.46625 C67.4794792,61.774375 64.9539583,64.7169792 64.1847917,65.5904167 C63.4183333,66.4652083 62.651875,66.5708333 61.3342708,65.9167708 C60.0139583,65.2654167 55.77,63.8801042 50.740625,59.434375 C46.8284375,55.9663542 44.1851042,51.69125 43.4132292,50.3844792 C42.6494792,49.0790625 43.3373958,48.3708333 43.9901042,47.7194792 C44.5845833,47.1304167 45.3090625,46.1933333 45.9671875,45.4336458 C46.6266667,44.6671875 46.8446875,44.1214583 47.2847917,43.2480208 C47.7235417,42.3745833 47.5055208,41.6148958 47.1723958,40.9621875 C46.8446875,40.3094792 44.2094792,33.8785417 43.11125,31.2595833 C42.0197917,28.64875 40.9202083,28.7457791 40.1483333,28.7457791 C39.381875,28.7457791 37.9613542,28.97375 37.9613542,28.97375 C37.9613542,28.97375 35.3207292,29.3001042 34.1155208,30.606875 C32.9103125,31.9136458 29.5086458,35.0783333 29.5086458,41.5025 C29.5086458,47.9320833 34.2238542,54.1490625 34.8819792,55.014375 C35.5414583,55.8891667 43.9901042,69.5134375 57.37875,74.7472917 C70.76875,79.9770833 70.76875,78.2315625 73.1845833,78.0108333 C75.595,77.7995833 80.97375,74.8529167 82.0733333,71.800625 C83.1715625,68.7483333 83.1715625,66.1307292 82.8452083,65.5904167 Z M55.7158333,8.490625 C30.8032292,8.490625 10.5448958,28.5932292 10.5448958,53.3121875 C10.5448958,63.1136458 13.739375,72.19875 19.1479167,79.5911458 L13.5078125,96.2325 L30.8628125,90.7183333 C37.9925,95.3969792 46.5372917,98.1283333 55.7158333,98.1283333 C80.6176042,98.1283333 100.882708,78.024375 100.882708,53.3121875 C100.882708,28.5932292 80.6176042,8.490625 55.7158333,8.490625 Z M109.438333,53.3121875 C109.438333,82.7490625 85.385625,106.618958 55.7158333,106.618958 C46.2935417,106.618958 37.4413542,104.213958 29.745625,99.9848958 L-1.3470706e-13,109.438333 L9.69583333,80.8383333 C4.80322917,72.8040625 1.98927083,63.3817708 1.98927083,53.3121875 C1.98927083,23.8685417 26.0419792,0 55.7158333,0 C85.385625,0 109.438333,23.8685417 109.438333,53.3121875 L109.438333,53.3121875 Z" id="Fill-15"></path>
            </g>
        </g>
    </g>
</svg>