<svg width="29" height="28" viewBox="0 0 29 28" version="1.1" xmlns="http://www.w3.org/2000/svg" xmlns:xlink="http://www.w3.org/1999/xlink">
<title>pink-instagram</title>
<desc>Created using Figma</desc>
<g id="Canvas" transform="translate(34777 -2685)">
<g id="pink-instagram">
<use xlink:href="#path0_fill" transform="translate(-34777 2685)" fill="#009ee3"/>
</g>
</g>
<defs>
<path id="path0_fill" fill-rule="evenodd" d="M 13.9972 2.52272C 17.7369 2.52272 18.1758 2.53939 19.6539 2.60607C 21.0208 2.6672 21.7599 2.89502 22.2544 3.08951C 22.9101 3.34511 23.3769 3.64517 23.8659 4.13415C 24.3548 4.62314 24.6604 5.08991 24.9105 5.74558C 25.0994 6.24013 25.3328 6.97917 25.3939 8.3461C 25.4606 9.82418 25.4773 10.2631 25.4773 14.0028C 25.4773 17.7424 25.4606 18.1814 25.3939 19.6595C 25.3328 21.0264 25.105 21.7654 24.9105 22.26C 24.6549 22.9157 24.3548 23.3824 23.8659 23.8714C 23.3769 24.3604 22.9101 24.666 22.2544 24.9161C 21.7599 25.105 21.0208 25.3384 19.6539 25.3995C 18.1758 25.4662 17.7369 25.4828 13.9972 25.4828C 10.2576 25.4828 9.81863 25.4662 8.34052 25.3995C 6.97361 25.3384 6.23458 25.1105 5.74002 24.9161C 5.08434 24.6605 4.61756 24.3604 4.12859 23.8714C 3.63961 23.3824 3.334 22.9157 3.08395 22.26C 2.895 21.7654 2.66166 21.0264 2.60051 19.6595C 2.53381 18.1814 2.51716 17.7424 2.51716 14.0028C 2.51716 10.2631 2.53381 9.82418 2.60051 8.3461C 2.66166 6.97917 2.88946 6.24013 3.08395 5.74558C 3.33953 5.08991 3.63961 4.62314 4.12859 4.13415C 4.61756 3.64517 5.08434 3.33956 5.74002 3.08951C 6.23458 2.90057 6.97361 2.6672 8.34052 2.60607C 9.81863 2.53384 10.2576 2.52272 13.9972 2.52272ZM 13.9972 0C 10.1965 0 9.71862 0.0166727 8.22386 0.0833499C 6.73468 0.150027 5.71782 0.388966 4.82876 0.733476C 3.90632 1.08911 3.12839 1.57254 2.35046 2.35047C 1.57252 3.1284 1.09467 3.91188 0.73349 4.82873C 0.388966 5.7178 0.150041 6.73467 0.0833499 8.22942C 0.0166591 9.71859 0 10.1965 0 13.9972C 0 17.798 0.0166591 18.2758 0.0833499 19.7706C 0.150041 21.2598 0.388966 22.2766 0.73349 23.1713C 1.08908 24.0937 1.57252 24.8716 2.35046 25.6495C 3.12839 26.4275 3.91191 26.9053 4.82876 27.2665C 5.71782 27.611 6.73468 27.85 8.22939 27.9166C 9.72415 27.9833 10.1965 28 14.0028 28C 17.8091 28 18.2814 27.9833 19.7762 27.9166C 21.2653 27.85 22.2822 27.611 23.1768 27.2665C 24.0992 26.9109 24.8772 26.4275 25.6551 25.6495C 26.433 24.8716 26.9109 24.0881 27.2721 23.1713C 27.6166 22.2822 27.8555 21.2653 27.9222 19.7706C 27.9889 18.2758 28.0056 17.8035 28.0056 13.9972C 28.0056 10.1909 27.9889 9.71859 27.9222 8.22386C 27.8555 6.73467 27.6166 5.7178 27.2721 4.82318C 26.9165 3.90077 26.433 3.12284 25.6551 2.34491C 24.8772 1.56698 24.0937 1.08911 23.1768 0.727928C 22.2877 0.383404 21.2709 0.144479 19.7762 0.0777878C 18.2759 0.0166727 17.798 0 13.9972 0ZM 13.9972 6.80691C 10.0298 6.80691 6.80691 10.0242 6.80691 13.9972C 6.80691 17.9702 10.0298 21.1875 13.9972 21.1875C 17.9647 21.1875 21.1875 17.9647 21.1875 13.9972C 21.1875 10.0298 17.9647 6.80691 13.9972 6.80691ZM 13.9972 18.6648C 11.4189 18.6648 9.32965 16.5755 9.32965 13.9972C 9.32965 11.4189 11.4189 9.32963 13.9972 9.32963C 16.5755 9.32963 18.6648 11.4189 18.6648 13.9972C 18.6648 16.5755 16.5755 18.6648 13.9972 18.6648ZM 23.1491 6.52351C 23.1491 7.4503 22.3977 8.20162 21.471 8.20162C 20.5442 8.20162 19.7928 7.4503 19.7928 6.52351C 19.7928 5.59672 20.5442 4.8454 21.471 4.8454C 22.3977 4.8454 23.1491 5.59672 23.1491 6.52351Z"/>
</defs>
</svg>
