<?xml version="1.0" encoding="utf-8"?>
<!-- Generator: Adobe Illustrator 25.2.0, SVG Export Plug-In . SVG Version: 6.00 Build 0)  -->
<svg version="1.1" xmlns="http://www.w3.org/2000/svg" xmlns:xlink="http://www.w3.org/1999/xlink" x="0px" y="0px"
	 viewBox="0 0 445 115" xml:space="preserve">
<style type="text/css">
	.st0{fill:#FFFFFF;}
	.st1{fill-rule:evenodd;clip-rule:evenodd;fill:#FFFFFF;}
</style>
<g>
	<g>
		<path class="st0" d="M76.7,7.4H32C19.7,7.4,9.6,18,9.6,30.9v47c0,12.9,10.1,23.5,22.4,23.5h44.8c12.3,0,22.4-10.6,22.4-23.5v-47
			C99.1,18,89,7.4,76.7,7.4z M49.5,26.9c0-2.2,1.7-4,3.8-4h7c2.1,0,3.8,1.8,3.8,4v7.3c0,2.2-1.7,4-3.8,4h-7c-2.1,0-3.8-1.8-3.8-4
			C49.5,34.3,49.5,26.9,49.5,26.9z M44,69c0,1.5-1.2,2.7-2.6,2.7h-4.8c-1.4,0-2.6-1.2-2.6-2.7v-5c0-1.5,1.2-2.7,2.6-2.7h4.8
			c1.4,0,2.6,1.2,2.6,2.7V69z M42.2,54.6h-7.9c-2.3,0-4.2-2-4.2-4.5v-8.3c0-2.5,1.9-4.5,4.2-4.5h7.9c2.3,0,4.2,2,4.2,4.5v8.3
			C46.4,52.6,44.5,54.6,42.2,54.6z M57.4,84.3c0,1.8-1.4,3.2-3.1,3.2h-5.7c-1.7,0-3-1.4-3-3.2v-6c0-1.8,1.4-3.2,3-3.2h5.7
			c1.7,0,3.1,1.4,3.1,3.2V84.3z M62.3,69.5c-3,1.6-7.5,1-9.9-1.2c-0.5-0.4-0.9-0.9-1-1.6c-0.3-1.5,1-2.6,2.5-2
			c0.5,0.2,1,0.5,1.4,0.8c1.3,0.8,2.7,1.3,4.3,1c0.8-0.1,1.5-0.4,1.9-1.2c0.6-1,0.4-2.1-0.5-3.1c-0.8-0.8-1.7-1.4-2.7-1.9
			c-1.2-0.6-2.3-1.2-3.5-1.8c-1.3-0.8-2.3-1.8-2.9-3.2c-1.2-3-0.1-6,2.6-7.6c1.2-0.7,2.6-1,4-1.1c1.9,0.1,3.7,0.6,5.3,1.8
			c0.4,0.3,0.8,0.8,1,1.2c0.3,0.6,0.3,1.2-0.1,1.8s-1,0.9-1.7,0.8c-0.6-0.1-1.3-0.4-1.8-0.7c-1.1-0.7-2.3-1-3.6-0.8
			c-0.4,0.1-0.9,0.2-1.3,0.4c-1.2,0.7-1.4,2.4-0.3,3.5c0.5,0.5,1,0.9,1.5,1.2c1.4,0.8,2.8,1.5,4.2,2.3c1.2,0.7,2.3,1.6,3,3
			C66.6,64.2,65.5,67.8,62.3,69.5z M69.7,67.5h-0.6v2.6c0,0.1-0.1,0.2-0.2,0.2s-0.2-0.1-0.2-0.2v-2.6h-0.6c-0.1,0-0.2-0.1-0.2-0.3
			c0-0.2,0.1-0.3,0.2-0.3h1.7c0.1,0,0.2,0.1,0.2,0.3C69.9,67.4,69.8,67.5,69.7,67.5z M73.2,70.2c0,0.1-0.1,0.2-0.2,0.2
			s-0.2-0.1-0.2-0.2v-2.1c-0.1,0.4-0.3,0.9-0.4,1.3c-0.2,0.8-0.3,0.8-0.3,0.8c-0.1,0.1-0.1,0.2-0.2,0.2s-0.2-0.1-0.2-0.2l-0.9-2.1
			v2.1c0,0.1-0.1,0.2-0.2,0.2s-0.2-0.1-0.2-0.2v-2.8c0-0.2,0.2-0.4,0.4-0.4c0.2,0,0.3,0.1,0.4,0.3l0.7,2.2l0.7-2.2
			c0.1-0.2,0.2-0.3,0.4-0.3c0.2,0,0.4,0.2,0.4,0.4L73.2,70.2L73.2,70.2z M77.2,39c0,1.2-0.9,2.2-2.1,2.2h-3.9c-1.2,0-2.1-1-2.1-2.2
			v-4.1c0-1.2,0.9-2.2,2.1-2.2h3.9c1.2,0,2.1,1,2.1,2.2V39z"/>
	</g>
	<g>
		<g>
			<g>
				<path id="Fill-32_1_" class="st1" d="M152.7,27.6c1.3-4.4,5.3-7.6,10.1-7.6c4.7,0,8.7,3.2,10,7.6H152.7z M162.8,14.5
					c-8.8,0-15.8,7.3-15.8,16.4c0,9.2,7,16.6,15.8,16.6c4.2,0,8.1-1.7,10.9-4.7c0.6-0.5,0.9-1.3,0.9-2c0-1.5-1.2-2.8-2.6-2.8
					c-0.8,0-1.5,0.5-2.1,1.1c-1.8,2-4.4,2.9-7.1,2.9c-5.3,0-9.5-3.8-10.4-9h23.5c0,0,0,0,0.1,0h0.1c0.1,0,0.1,0,0.2,0h0.1
					c1.1-0.3,2.1-1.4,2.1-2.9C178.4,21.7,171.2,14.5,162.8,14.5L162.8,14.5z"/>
				<path id="Fill-34_1_" class="st1" d="M213.3,42c-5.9,0-10.6-4.9-10.6-11.1c0-6.1,4.6-11,10.6-11c5.9,0,10.5,4.9,10.5,11
					C223.8,37.2,219.2,42,213.3,42 M226.4,14.8c-1.4,0-2.6,1.2-2.6,2.6v1.3c-2.8-2.6-6.5-4.2-10.5-4.2c-8.8,0-15.8,7.3-15.8,16.4
					c0,9.2,7,16.6,15.8,16.6c4,0,7.7-1.6,10.5-4.2v1.3c0,1.4,1.2,2.6,2.6,2.6c1.3,0,2.6-1.2,2.6-2.6V17.4
					C229,16,227.7,14.8,226.4,14.8"/>
				<path id="Fill-36_1_" class="st1" d="M271,42c-5.9,0-10.6-4.9-10.6-11.1c0-6.1,4.6-11,10.6-11c5.9,0,10.5,4.9,10.5,11
					C281.6,37.2,276.9,42,271,42 M284.2,14.8c-1.4,0-2.6,1.2-2.6,2.6v1.3c-2.8-2.6-6.5-4.2-10.5-4.2c-8.8,0-15.8,7.3-15.8,16.4
					c0,9.2,7,16.6,15.8,16.6c4,0,7.7-1.6,10.5-4.2v1.3c0,1.4,1.2,2.6,2.6,2.6c1.3,0,2.6-1.2,2.6-2.6V17.4
					C286.8,16,285.5,14.8,284.2,14.8"/>
				<path id="Fill-38_1_" class="st1" d="M195.7,14.5c-3,0.1-5.8,1-7.9,2.8c-0.1-1.3-1.3-2.5-2.6-2.5c-1.4,0-2.6,1.2-2.6,2.6v27.2
					c0,1.4,1.2,2.6,2.6,2.6c1.3,0,2.6-1.2,2.6-2.6V28.1c0-6.4,3.8-7.9,7.9-8c1.6,0,2.9-1.3,2.9-2.8
					C198.6,15.9,197.4,14.5,195.7,14.5"/>
				<path id="Fill-40_1_" class="st1" d="M139,30.3c-1.9-1.1-3.9-2.1-5.9-3.3c-0.8-0.5-1.5-1-2.2-1.7c-1.5-1.6-1.2-3.9,0.5-4.9
					c0.5-0.3,1.2-0.5,1.8-0.6c1.8-0.2,3.4,0.2,5,1.2c0.8,0.5,1.7,0.8,2.6,1c0.9,0.2,1.7-0.2,2.3-1s0.6-1.7,0.1-2.5
					c-0.4-0.6-0.9-1.2-1.4-1.7c-2.2-1.7-4.7-2.4-7.4-2.5c-2,0-3.9,0.5-5.6,1.5c-3.8,2.2-5.2,6.5-3.6,10.6c0.8,2,2.2,3.5,4,4.5
					c1.6,0.9,3.2,1.7,4.8,2.6c1.3,0.7,2.6,1.5,3.7,2.6c1.3,1.4,1.6,3,0.7,4.4c-0.6,1-1.6,1.4-2.7,1.6c-2.2,0.4-4.1-0.2-6-1.4
					c-0.6-0.4-1.3-0.8-2-1.1c-2-0.8-3.8,0.7-3.5,2.8c0.2,0.9,0.7,1.6,1.4,2.2c3.4,3.1,9.7,3.9,13.9,1.7c4.5-2.3,6-7.3,3.7-12
					C142.2,32.6,140.7,31.3,139,30.3"/>
				<path id="Fill-42_1_" class="st1" d="M247.6,30.3c-1.9-1.1-3.9-2.1-5.9-3.3c-0.8-0.5-1.5-1-2.2-1.7c-1.5-1.6-1.2-3.9,0.5-4.9
					c0.5-0.3,1.2-0.5,1.8-0.6c1.8-0.2,3.4,0.2,5,1.2c0.8,0.5,1.7,0.8,2.6,1c0.9,0.2,1.7-0.2,2.3-1s0.6-1.7,0.1-2.5
					c-0.4-0.6-0.9-1.2-1.4-1.7c-2.2-1.7-4.7-2.4-7.4-2.5c-2,0-3.9,0.5-5.6,1.5c-3.8,2.2-5.2,6.5-3.6,10.6c0.8,2,2.2,3.5,4,4.5
					c1.6,0.9,3.2,1.7,4.8,2.6c1.3,0.7,2.6,1.5,3.7,2.6c1.3,1.4,1.6,3,0.7,4.4c-0.6,1-1.6,1.4-2.7,1.6c-2.2,0.4-4.1-0.2-6-1.4
					c-0.6-0.4-1.3-0.8-2-1.1c-2-0.8-3.8,0.7-3.5,2.8c0.2,0.9,0.7,1.6,1.4,2.2c3.4,3.1,9.7,3.9,13.9,1.7c4.5-2.3,6-7.3,3.7-12
					C250.9,32.6,249.4,31.3,247.6,30.3"/>
			</g>
		</g>
		<g>
			<path class="st0" d="M123.7,52.4c0-1.4,1.2-2.6,2.6-2.6c1.3,0,2.5,1.2,2.5,2.6v39.8c0,1.4-1.3,2.6-2.5,2.6
				c-1.4,0-2.6-1.2-2.6-2.6V52.4z"/>
			<path class="st0" d="M134.3,55.8c0-1.4,1.2-2.6,2.6-2.6c1.3,0,2.5,1.3,2.5,2.6c0,1.5-1.2,2.7-2.5,2.7
				C135.5,58.5,134.3,57.3,134.3,55.8z M134.3,65.2c0-1.4,1.2-2.6,2.6-2.6c1.3,0,2.5,1.2,2.5,2.6v27.1c0,1.4-1.3,2.6-2.5,2.6
				c-1.4,0-2.6-1.2-2.6-2.6V65.2z"/>
			<path class="st0" d="M166.5,76.1c0-4.5-3.8-8.5-8.1-8.5c-4.2,0-8.1,1.7-8.1,8v16.6c0,1.4-1.3,2.6-2.5,2.6c-1.4,0-2.6-1.2-2.6-2.6
				V65.1c0-1.4,1.2-2.6,2.6-2.6c1.2,0,2.5,1.2,2.5,2.5c2.2-1.8,5-2.7,8-2.7c4.2,0,8.2,2,10.7,5.3c2.4-3.3,6.4-5.3,10.6-5.3
				c7,0,13.3,5.8,13.3,13v16.9c0,1.4-1.3,2.6-2.5,2.6c-1.4,0-2.6-1.2-2.6-2.6V76.1c0-4.5-3.8-8.5-8.1-8.5c-4.1,0-8.2,3.5-8.2,7.8
				v16.8c0,1.5-1.2,2.6-2.4,2.6c-1.4,0-2.6-1.2-2.6-2.6L166.5,76.1L166.5,76.1z"/>
			<path class="st0" d="M202.7,66.4c2.7-2.6,6.4-4.2,10.4-4.2c8.7,0,15.7,7.3,15.7,16.5c0,9-7,16.4-15.7,16.4c-4,0-7.7-1.6-10.4-4.2
				V105c0,1.4-1.2,2.6-2.6,2.6c-1.3,0-2.5-1.2-2.5-2.6V65.1c0-1.4,1.3-2.6,2.5-2.6c1.4,0,2.6,1.2,2.6,2.6V66.4z M213.1,67.7
				c-5.8,0-10.4,4.8-10.4,11c0,6.1,4.6,11,10.4,11c5.9,0,10.5-4.8,10.5-11S219,67.7,213.1,67.7z"/>
			<path class="st0" d="M258.8,65.2c0-1.4,1.2-2.6,2.6-2.6c1.3,0,2.5,1.2,2.5,2.6v27.1c0,1.4-1.3,2.6-2.5,2.6
				c-1.4,0-2.6-1.2-2.6-2.6V91c-2.8,2.6-6.4,4.2-10.4,4.2c-8.7,0-15.7-7.3-15.7-16.5c0-9,7-16.4,15.7-16.4c4,0,7.6,1.6,10.4,4.2
				V65.2L258.8,65.2z M248.4,89.7c5.8,0,10.4-4.8,10.4-11c0-6.1-4.6-11-10.4-11c-5.9,0-10.5,4.8-10.5,11
				C237.9,84.8,242.5,89.7,248.4,89.7z"/>
			<path class="st0" d="M307.4,76.1c0-4.5-3.8-8.5-8-8.5s-8,1.8-8,8.2v16.5c0,1.4-1.3,2.6-2.5,2.6c-1.4,0-2.6-1.2-2.6-2.6V65.2
				c0-1.4,1.2-2.6,2.6-2.6c1.2,0,2.5,1.2,2.5,2.5c2.2-1.8,5-2.7,8-2.7c7,0,13.3,5.8,13.3,13v16.9c0,1.4-1.3,2.6-2.5,2.6
				c-1.4,0-2.6-1.2-2.6-2.6L307.4,76.1L307.4,76.1z"/>
			<path class="st0" d="M332.2,62.3c8.6,0,15.6,7.3,15.6,16.4c0,9.2-7,16.5-15.6,16.5c-8.7,0-15.7-7.3-15.7-16.5
				C316.5,69.6,323.5,62.3,332.2,62.3z M332.2,89.7c5.8,0,10.4-4.8,10.4-11c0-6.1-4.6-11-10.4-11c-5.9,0-10.5,4.8-10.5,11
				C321.7,84.8,326.3,89.7,332.2,89.7z"/>
			<path class="st0" d="M373.7,76.1c0-4.5-3.8-8.5-8-8.5s-8,1.7-8,8v16.6c0,1.4-1.3,2.6-2.5,2.6c-1.4,0-2.6-1.2-2.6-2.6V65.1
				c0-1.4,1.2-2.6,2.6-2.6c1.2,0,2.5,1.2,2.5,2.5c2.2-1.8,5-2.7,8-2.7c4.2,0,8.2,2,10.7,5.3c2.4-3.3,6.4-5.3,10.6-5.3
				c7,0,13.3,5.8,13.3,13v16.9c0,1.4-1.3,2.6-2.5,2.6c-1.4,0-2.6-1.2-2.6-2.6V76.1c0-4.5-3.8-8.5-8-8.5c-4.1,0-8.2,3.5-8.2,7.8v16.8
				c0,1.5-1.2,2.6-2.4,2.6c-1.4,0-2.6-1.2-2.6-2.6L373.7,76.1L373.7,76.1z"/>
			<path class="st0" d="M404,78.7c0-9,7-16.4,15.7-16.4c8.4,0,15.4,7.1,15.6,15.5c0,1.6-1.1,2.8-2.4,2.9h-23.5c0.9,5.2,5.1,9,10.4,9
				c2.7,0,5.3-0.9,7.1-2.9c0.5-0.6,1.3-1.1,2.1-1.1c1.4,0,2.6,1.3,2.6,2.7c0,0.8-0.4,1.5-0.9,2c-2.8,2.9-6.7,4.7-10.8,4.7
				C411,95.1,404,87.8,404,78.7z M409.4,76.2h20.5c-1-4.9-5.1-8.5-10.2-8.5C414.6,67.7,410.5,71.3,409.4,76.2z"/>
		</g>
	</g>
</g>
</svg>
