<svg width="29" height="28" viewBox="0 0 29 28" version="1.1" xmlns="http://www.w3.org/2000/svg" xmlns:xlink="http://www.w3.org/1999/xlink">
<title>pink-linkedin</title>
<desc>Created using Figma</desc>
<g id="Canvas" transform="translate(34722 -2685)">
<g id="pink-linkedin">
<use xlink:href="#path0_fill" transform="translate(-34722 2685)" fill="#009ee3"/>
</g>
</g>
<defs>
<path id="path0_fill" fill-rule="evenodd" d="M 2.10015 0L 25.8999 0C 27.0665 0 28 0.933295 28.0775 2.0223L 28.0775 25.9777C 28.0775 27.0667 27.1448 28 25.9781 28L 2.10015 28C 0.933485 28 0 27.0667 0 25.9777L 0 2.0223C 0 0.933295 0.933485 0 2.10015 0ZM 4.12283 10.5L 8.2449 10.5L 8.2449 23.8777L 4.12283 23.8777L 4.12283 10.5ZM 6.22222 3.88889C 7.5446 3.88889 8.63379 4.9777 8.63379 6.30008C 8.63379 7.62226 7.5446 8.71107 6.22222 8.71107C 4.90061 8.71107 3.81142 7.62226 3.81142 6.30008C 3.81142 4.90004 4.90061 3.88889 6.22222 3.88889ZM 10.8889 10.5L 14.8553 10.5L 14.8553 12.2889L 14.9335 12.2889C 15.4781 11.1999 16.8779 10.1111 18.8999 10.1111C 23.1002 10.1111 23.8779 12.9112 23.8779 16.4889L 23.8779 23.8001L 19.7559 23.8001L 19.7559 17.2666C 19.7559 15.7111 19.7559 13.689 17.5775 13.689C 15.3999 13.689 15.0892 15.4 15.0892 17.1111L 15.0892 23.7222L 10.8889 23.7222L 10.8889 10.5Z"/>
</defs>
</svg>
