<svg xmlns="http://www.w3.org/2000/svg" width="64" height="64" viewBox="0 0 64 64">
    <defs>
        <linearGradient id="3i6jgmkmba" x1="50%" x2="50%" y1="0%" y2="100%">
            <stop offset="0%" stop-color="#52C9FF"/>
            <stop offset="100%" stop-color="#8DE0FF"/>
        </linearGradient>
        <linearGradient id="s6myzxec9b" x1="0%" x2="100%" y1="50%" y2="50%">
            <stop offset="0%" stop-color="#00B8FF"/>
            <stop offset="100%" stop-color="#009DE3"/>
        </linearGradient>
        <linearGradient id="d5cn0r2y1c" x1="50%" x2="50%" y1="0%" y2="100%">
            <stop offset="0%" stop-color="#12B4FE"/>
            <stop offset="100%" stop-color="#32C8FF"/>
        </linearGradient>
        <linearGradient id="boofh1e7dd" x1="0%" x2="100%" y1="50%" y2="50%">
            <stop offset="0%" stop-color="#00B8FF"/>
            <stop offset="100%" stop-color="#009DE3"/>
        </linearGradient>
        <linearGradient id="rl8wez5tze" x1="100%" x2="0%" y1="50%" y2="50%">
            <stop offset="0%" stop-color="#3CCBFF"/>
            <stop offset="100%" stop-color="#4AC6FF"/>
        </linearGradient>
        <linearGradient id="9i7szshy5f" x1="50%" x2="50%" y1="0%" y2="100%">
            <stop offset="0%" stop-color="#6B86A1"/>
            <stop offset="100%" stop-color="#4D7296"/>
        </linearGradient>
    </defs>
    <g fill="none" fill-rule="evenodd">
        <path fill="#E7F3F9" d="M61.722 44.874c2.696-9.832 3.632-23.467-.764-32.88-1.347-2.885-3.373-5.388-5.99-7.196C49.038.703 42.975-1.94 36.095 1.784c-4.458 2.413-6.616 6.746-10.407 9.809-7.19 5.809-18.463 3.875-23.572 12.739-3.747 6.5-1.966 14.803 1.077 21.235 3.07 6.488 8.234 12.1 14.638 15.341 1.553.787 3.173 1.437 4.84 1.934 12.517 3.73 30.948-1.726 37.413-13.862.689-1.294 1.242-2.663 1.638-4.106z"/>
        <path fill="url(#3i6jgmkmba)" d="M50.982 0H8v10.667h4.016v45.816c0 4.151 3.37 7.517 7.528 7.517H49c3.866 0 7-3.134 7-7V5.012C56 2.244 53.753 0 50.982 0z"/>
        <path fill="url(#s6myzxec9b)" d="M6.602 0C9.583 0 12 2.417 12 5.398v5.269H1.333V5.125C1.333 2.295 3.693 0 6.602 0z"/>
        <path fill="url(#d5cn0r2y1c)" d="M45.083 27.533c-.693 1.673-.118 4.244-1.379 5.505-1.261 1.26-3.83.685-5.504 1.379-1.614.669-3.01 2.916-4.867 2.916-1.856 0-3.252-2.247-4.866-2.916-1.674-.694-4.244-.118-5.505-1.38-1.26-1.26-.685-3.83-1.379-5.504-.669-1.614-2.916-3.01-2.916-4.867 0-1.856 2.247-3.252 2.916-4.866.694-1.673.118-4.243 1.38-5.505 1.26-1.26 3.83-.685 5.504-1.378C30.08 10.247 31.477 8 33.333 8c1.857 0 3.253 2.247 4.867 2.917 1.673.693 4.243.118 5.504 1.379 1.261 1.26.686 3.83 1.38 5.504.669 1.614 2.916 3.01 2.916 4.866 0 1.857-2.247 3.253-2.917 4.867z"/>
        <path fill="url(#boofh1e7dd)" d="M19.334 64c1.255-1.671 2-3.749 2-6s-.745-4.329-2-6h37.333c3.313 0 6 2.686 6 6s-2.687 6-6 6H19.334z"/>
        <g fill="#FFF">
            <path fill-rule="nonzero" d="M9.333 2.667c.737 0 1.334.597 1.334 1.333 0 .684-.515 1.247-1.178 1.324l-.156.01h-5c-.92 0-1.666.746-1.666 1.666 0 .863.655 1.573 1.496 1.658l.17.009h2c2.394 0 4.334 1.94 4.334 4.333 0 2.31-1.809 4.199-4.088 4.326l-.246.007h-5C.597 17.333 0 16.736 0 16c0-.684.515-1.247 1.178-1.324l.155-.01h5C7.253 14.667 8 13.92 8 13c0-.863-.656-1.573-1.496-1.658l-.17-.009h-2C1.94 11.333 0 9.393 0 7c0-2.31 1.809-4.199 4.087-4.326l.246-.007h5z" transform="translate(28 13.333)"/>
            <path d="M5 0h.667c.552 0 1 .448 1 1v3H4V1c0-.552.448-1 1-1zM5.667 20H5c-.552 0-1-.448-1-1v-3h2.667v3c0 .552-.448 1-1 1z" transform="translate(28 13.333)"/>
        </g>
        <rect width="29.333" height="2.667" x="18.667" y="42.667" fill="url(#rl8wez5tze)" rx="1"/>
        <path fill="url(#9i7szshy5f)" d="M56.12 25.856l7.086 18.16c.241.617-.064 1.303-.683 1.535l-12.834 4.79c-.297.113-.629.103-.922-.028-.293-.13-.522-.37-.637-.666l-6.797-17.92 4.628-10.394 10.158 4.523zm-7.534 8.068c1.4.624 3.04-.006 3.663-1.405.623-1.4-.007-3.04-1.406-3.663-1.4-.623-3.04.006-3.663 1.406-.299.672-.319 1.435-.055 2.122.263.687.789 1.241 1.461 1.54z"/>
    </g>
</svg>
