<svg xmlns="http://www.w3.org/2000/svg" width="80" height="83" viewBox="0 0 80 83">
    <defs>
        <linearGradient id="7o79dj2lwa" x1="50%" x2="50%" y1="0%" y2="100%">
            <stop offset="0%" stop-color="#D4DAE0"/>
            <stop offset="100%" stop-color="#9DAEBF"/>
        </linearGradient>
        <linearGradient id="v8o2t4srib" x1="50%" x2="50%" y1="0%" y2="100%">
            <stop offset="0%" stop-color="#0D6EB7"/>
            <stop offset="100%" stop-color="#1089E5"/>
        </linearGradient>
        <linearGradient id="ojhx36r4tc" x1="50%" x2="50%" y1="0%" y2="100%">
            <stop offset="0%" stop-color="#72217B"/>
            <stop offset="100%" stop-color="#992CA5"/>
        </linearGradient>
        <linearGradient id="l3lubhbj6d" x1="50%" x2="50%" y1="0%" y2="100%">
            <stop offset="0%" stop-color="#B12384"/>
            <stop offset="100%" stop-color="#D1299C"/>
        </linearGradient>
        <linearGradient id="ecloltj6se" x1="50%" x2="50%" y1="0%" y2="100%">
            <stop offset="0%" stop-color="#004691"/>
            <stop offset="100%" stop-color="#005EC2"/>
        </linearGradient>
        <linearGradient id="y88ezrxxnf" x1="50%" x2="50%" y1="0%" y2="100%">
            <stop offset="0%" stop-color="#004691"/>
            <stop offset="100%" stop-color="#005EC2"/>
        </linearGradient>
        <linearGradient id="g14qe1s23g" x1="50%" x2="50%" y1="100%" y2="0%">
            <stop offset="0%" stop-color="#52C9FF"/>
            <stop offset="100%" stop-color="#8DE0FF"/>
        </linearGradient>
        <linearGradient id="mstpunjebh" x1="50%" x2="50%" y1="100%" y2="0%">
            <stop offset="0%" stop-color="#52C9FF"/>
            <stop offset="100%" stop-color="#8DE0FF"/>
        </linearGradient>
    </defs>
    <g fill="none" fill-rule="evenodd">
        <g>
            <g>
                <g>
                    <path fill="#F5F7F9" d="M2.848 25.24c-3.37 12.29-4.54 29.335.955 41.102 1.684 3.605 4.215 6.734 7.487 8.994 7.413 5.119 14.991 8.423 23.592 3.767 5.572-3.016 8.27-8.432 13.008-12.26 8.989-7.262 23.08-4.845 29.466-15.925 4.683-8.124 2.456-18.503-1.347-26.543-3.837-8.11-10.293-15.124-18.298-19.177-1.941-.983-3.966-1.796-6.05-2.417C36.014-1.882 12.977 4.939 4.895 20.108c-.861 1.618-1.553 3.33-2.047 5.132z" transform="translate(-599 -2199) translate(599 2199) translate(0 .667) rotate(90 40 41.333)"/>
                    <g transform="translate(-599 -2199) translate(599 2199) translate(0 .667) translate(14)">
                        <rect width="50" height="74" x="1" y="2.333" fill="url(#7o79dj2lwa)" rx="4"/>
                        <rect width="42" height="52" x="5" y="12.333" fill="#FFF" rx="2"/>
                        <rect width="13" height="1" x="20" y="7.333" fill="#FFF" rx=".5"/>
                        <circle cx="26.5" cy="68.833" r="2.5" fill="#FFF"/>
                    </g>
                    <g>
                        <path fill="url(#v8o2t4srib)" fill-rule="nonzero" d="M15.958 8.118h-3.222c-.959 0-1.734-.81-1.734-1.81V2.946c0-.999.775-1.808 1.734-1.808h3.221c.957 0 1.733.81 1.733 1.808V6.31c0 .999-.776 1.81-1.733 1.81" transform="translate(-599 -2199) translate(599 2199) translate(0 .667) translate(26 21.333)"/>
                        <path fill="url(#ojhx36r4tc)" fill-rule="nonzero" d="M7.624 15.655H4c-1.077 0-1.95-.908-1.95-2.035V9.838C2.05 8.714 2.923 7.8 4 7.8h3.624c1.077 0 1.95.913 1.95 2.036v3.783c0 1.126-.873 2.035-1.95 2.035" transform="translate(-599 -2199) translate(599 2199) translate(0 .667) translate(26 21.333)"/>
                        <path fill="url(#l3lubhbj6d)" fill-rule="nonzero" d="M7.28 23.507H5.064c-.657 0-1.193-.556-1.193-1.245v-2.308c0-.69.536-1.247 1.193-1.247H7.28c.657 0 1.192.557 1.192 1.247v2.308c0 .689-.535 1.245-1.192 1.245" transform="translate(-599 -2199) translate(599 2199) translate(0 .667) translate(26 21.333)"/>
                        <path fill="url(#ecloltj6se)" fill-rule="nonzero" d="M10.604 30.806c-.777 0-1.408-.655-1.408-1.469v-2.732c0-.813.63-1.47 1.408-1.47h2.618c.778 0 1.408.657 1.408 1.47v2.732c0 .814-.63 1.47-1.408 1.47l-2.618-.001z" transform="translate(-599 -2199) translate(599 2199) translate(0 .667) translate(26 21.333)"/>
                        <path fill="url(#y88ezrxxnf)" fill-rule="nonzero" d="M20.998 9.494c-.537 0-.974-.457-.974-1.019V6.586c0-.561.436-1.018.974-1.018h1.814c.539 0 .975.457.975 1.018v1.89c0 .561-.436 1.019-.975 1.019h-1.814z" transform="translate(-599 -2199) translate(599 2199) translate(0 .667) translate(26 21.333)"/>
                        <path fill="#D92B80" fill-rule="nonzero" d="M16.758 17.198c-.64-.367-1.296-.702-1.932-1.075-.258-.15-.508-.335-.714-.554-.488-.516-.408-1.277.162-1.611.174-.102.383-.162.581-.19.59-.084 1.131.08 1.648.388.259.154.55.269.842.333.303.067.57-.08.759-.345.184-.26.184-.553.03-.814-.123-.21-.286-.41-.474-.558-.721-.566-1.555-.802-2.448-.83-.655.013-1.28.153-1.858.49-1.246.724-1.732 2.128-1.196 3.498.261.665.738 1.138 1.327 1.484.518.304 1.058.567 1.589.847.444.235.877.489 1.226.87.43.47.52 1.007.237 1.448-.212.33-.534.472-.896.534-.713.12-1.361-.069-1.97-.458-.209-.136-.425-.277-.653-.367-.658-.26-1.268.242-1.144.93.057.305.241.532.46.728 1.14 1.029 3.21 1.287 4.58.571 1.475-.77 1.989-2.416 1.23-3.948-.308-.623-.812-1.04-1.386-1.371m3.2 5.684c-.062 0-.114-.05-.114-.114v-1.214h-.26c-.06 0-.11-.053-.11-.119 0-.067.048-.12.11-.12h.752c.063 0 .11.052.11.12 0 .066-.049.118-.11.118h-.263v1.214c0 .066-.05.115-.115.115m1.345.003c-.062 0-.099-.048-.112-.093l-.324-.992v.967c0 .067-.05.116-.114.116-.063 0-.115-.053-.115-.116v-1.28c0-.095.081-.18.172-.18.073 0 .141.055.164.132l.329 1.003.325-1.003c.024-.077.092-.131.166-.131.091 0 .172.084.172.18v1.279c0 .067-.05.116-.114.116-.063 0-.114-.053-.114-.116v-.964c-.054.165-.138.423-.2.618l-.12.372c-.028.06-.066.093-.115.093" transform="translate(-599 -2199) translate(599 2199) translate(0 .667) translate(26 21.333)"/>
                        <path fill="url(#g14qe1s23g)" d="M1.931 1.938c.483-.485.805-1.13.966-1.938l.06.263c.174.686.476 1.244.905 1.675.43.43.985.733 1.669.908l.262.06c-.804.162-1.448.485-1.93.969-.484.484-.806 1.13-.966 1.938l-.06-.264c-.175-.685-.477-1.243-.906-1.674-.43-.43-.985-.734-1.669-.909L0 2.906c.805-.161 1.448-.484 1.931-.969z" transform="translate(-599 -2199) translate(599 2199) translate(0 .667) translate(26 21.333)"/>
                        <path fill="url(#mstpunjebh)" d="M25.425 16.307c.322-.323.537-.753.644-1.291l.045.196c.118.448.317.813.599 1.095.281.283.645.483 1.09.6l.197.046c-.536.108-.966.323-1.287.646-.322.323-.537.753-.644 1.292l-.045-.197c-.118-.448-.317-.812-.599-1.095-.281-.283-.645-.483-1.09-.6l-.197-.046c.536-.108.965-.323 1.287-.646zM19.15 28.417c.321-.323.536-.754.643-1.292l.045.197c.118.447.317.812.599 1.095.281.282.645.482 1.091.6l.196.046c-.536.107-.965.322-1.287.645-.322.323-.537.754-.644 1.292l-.045-.197c-.117-.447-.317-.812-.599-1.095-.281-.282-.645-.482-1.09-.6l-.197-.046c.536-.107.966-.322 1.287-.645z" transform="translate(-599 -2199) translate(599 2199) translate(0 .667) translate(26 21.333)"/>
                    </g>
                </g>
            </g>
        </g>
    </g>
</svg>
