<?xml version="1.0" encoding="UTF-8"?>
<svg width="210px" height="210px" viewBox="0 0 210 210" version="1.1" xmlns="http://www.w3.org/2000/svg" xmlns:xlink="http://www.w3.org/1999/xlink">
    <title>Group 42</title>
    <defs>
        <linearGradient x1="50%" y1="100%" x2="50%" y2="3.061617e-15%" id="linearGradient-1">
            <stop stop-color="#DDE7F2" stop-opacity="0.795236014" offset="0%"></stop>
            <stop stop-color="#F1F7FF" stop-opacity="0.16" offset="100%"></stop>
        </linearGradient>
        <linearGradient x1="100%" y1="37.7539988%" x2="0%" y2="62.2460012%" id="linearGradient-2">
            <stop stop-color="#E4ECF5" offset="0%"></stop>
            <stop stop-color="#C9D9E8" offset="100%"></stop>
        </linearGradient>
        <linearGradient x1="100%" y1="0%" x2="0%" y2="0%" id="linearGradient-3">
            <stop stop-color="#4AC8FF" offset="0%"></stop>
            <stop stop-color="#009EE3" offset="100%"></stop>
        </linearGradient>
        <filter id="filter-4">
            <feColorMatrix in="SourceGraphic" type="matrix" values="0 0 0 0 0.905882 0 0 0 0 0.952941 0 0 0 0 0.976471 0 0 0 1.000000 0"></feColorMatrix>
        </filter>
        <linearGradient x1="100%" y1="0%" x2="0%" y2="0%" id="linearGradient-5">
            <stop stop-color="#E4ECF5" offset="0%"></stop>
            <stop stop-color="#C9D9E8" offset="100%"></stop>
        </linearGradient>
        <linearGradient x1="100%" y1="0%" x2="0%" y2="0%" id="linearGradient-6">
            <stop stop-color="#E4ECF5" offset="0%"></stop>
            <stop stop-color="#C9D9E8" offset="100%"></stop>
        </linearGradient>
        <linearGradient x1="100%" y1="0%" x2="0%" y2="0%" id="linearGradient-7">
            <stop stop-color="#E4ECF5" offset="0%"></stop>
            <stop stop-color="#C9D9E8" offset="100%"></stop>
        </linearGradient>
        <filter id="filter-8">
            <feColorMatrix in="SourceGraphic" type="matrix" values="0 0 0 0 0.000000 0 0 0 0 0.619608 0 0 0 0 0.890196 0 0 0 1.000000 0"></feColorMatrix>
        </filter>
        <linearGradient x1="100%" y1="0%" x2="0%" y2="0%" id="linearGradient-9">
            <stop stop-color="#4AC8FF" offset="0%"></stop>
            <stop stop-color="#009EE3" offset="100%"></stop>
        </linearGradient>
    </defs>
    <g id="✈️-Landing-Page---Turbo" stroke="none" stroke-width="1" fill="none" fill-rule="evenodd">
        <g id="Group-42">
            <g id="Group-14">
                <rect id="Rectangle" stroke="#E6EAEE" fill="#FFFFFF" x="0.5" y="0.5" width="209" height="209" rx="8"></rect>
                <rect id="Rectangle" fill-opacity="0.4" fill="url(#linearGradient-1)" x="0" y="0" width="210" height="210" rx="8"></rect>
            </g>
            <rect id="Rectangle" fill="url(#linearGradient-2)" x="16" y="16.7164179" width="57" height="28.2089552" rx="4"></rect>
            <rect id="Rectangle-Copy-2" fill="url(#linearGradient-3)" x="136" y="28.2089552" width="57.708" height="5.63693162" rx="2.81846581"></rect>
            <g filter="url(#filter-4)" id="Group-16">
                <g transform="translate(86.000000, 131.641791)"></g>
            </g>
            <g id="Group-24" transform="translate(86.000000, 63.731343)">
                <rect id="Rectangle" fill="url(#linearGradient-5)" x="0" y="0" width="94" height="6.26865672" rx="3.13432836"></rect>
                <rect id="Rectangle" fill="url(#linearGradient-6)" x="0" y="14.6268657" width="74" height="6.26865672" rx="3.13432836"></rect>
                <rect id="Rectangle" fill="url(#linearGradient-7)" x="0" y="29.2537313" width="43" height="6.26865672" rx="3.13432836"></rect>
            </g>
            <g id="Label/Desconto/1a69" transform="translate(21.000000, 60.000000)" fill="#B400FF">
                <path d="M42,21.358209 C42,22.94444 40.395,24.3251736 40.06575,25.8101558 C39.72525,27.3423876 40.57725,29.2968642 39.924,30.6798477 C39.26175,32.085331 37.23,32.6185746 36.28725,33.8260602 C35.34,35.0387957 35.28,37.1822701 34.0935,38.1505086 C32.91375,39.1142471 30.8595,38.700252 29.48475,39.3782439 C28.1325,40.045736 27.17175,41.9529632 25.67325,42.3017091 C24.22275,42.639205 22.551,41.3544704 21,41.3544704 C19.449,41.3544704 17.778,42.639205 16.32675,42.3017091 C14.82825,41.9529632 13.8675,40.045736 12.51525,39.3782439 C11.1405,38.700252 9.08625,39.1142471 7.90575,38.1505086 C6.71925,37.1815201 6.66,35.0380457 5.71275,33.8253102 C4.77,32.6185746 2.73825,32.084581 2.076,30.6790977 C1.4235,29.2968642 2.27475,27.3423876 1.93425,25.8101558 C1.60425,24.3251736 0,22.94444 0,21.358209 C0,19.7719779 1.60425,18.3912444 1.93425,16.9062621 C2.27475,15.3740304 1.4235,13.4203037 2.076,12.0373202 C2.739,10.631087 4.77,10.0978433 5.71275,8.89035772 C6.66,7.67762219 6.72,5.53489776 7.9065,4.56590932 C9.087,3.60217082 11.14125,4.01541589 12.51525,3.33817397 C13.8675,2.67068194 14.82825,0.763454694 16.32675,0.414708856 C17.778,0.0772128826 19.449,1.36194755 21,1.36194755 C22.551,1.36194755 24.222,0.0772128826 25.67325,0.414708856 C27.17175,0.763454694 28.1325,2.67068194 29.48475,3.33817397 C30.8595,4.01616588 32.91375,3.60217082 34.09425,4.56590932 C35.28,5.53489776 35.34,7.67762219 36.28725,8.89110771 C37.23,10.0985933 39.26175,10.6318369 39.924,12.0373202 C40.57725,13.4203037 39.72525,15.3740304 40.06575,16.9062621 C40.395,18.3904944 42,19.7719779 42,21.358209" id="ribbon"></path>
            </g>
            <g id="Group-23" transform="translate(15.000000, 118.059701)">
                <rect id="Rectangle" stroke="#87D9FC" stroke-width="0.708196703" fill="#E5F6FF" x="0.354098351" y="0.354098351" width="180.291803" height="36.9037436" rx="10"></rect>
                <g id="Group-18" transform="translate(12.000000, 8.358209)">
                    <g id="Icons/General/negociar-dividas-Copy-21" filter="url(#filter-8)">
                        <g id="Group" transform="translate(0.395833, 0.413557)" fill="#0B64E0">
                            <g id="Group-11">
                                <g id="Group-10" transform="translate(1.583333, 0.000000)">
                                    <path d="M15.3943039,0.923355622 C17.0585328,2.6621023 16.3016904,6.28590773 13.7180683,9.10419642 L13.5469874,9.28682818 L13.4642097,9.35876873 C14.2296457,10.7037754 14.093247,12.4533483 13.0550136,13.6541697 L12.9312153,13.7902365 L9.85235448,17.0069567 L7.88058505,14.1229274 L7.77683042,14.192426 C7.10279512,14.6095119 6.22839833,14.5074219 5.65896142,13.9124879 L2.96184875,11.0946089 C2.39944193,10.5070197 2.29718178,9.60863417 2.67934954,8.90808678 L2.76054167,8.77254104 L0,6.71345201 L3.07886078,3.49673179 C4.22928905,2.29479181 5.98421074,2.10933276 7.32118538,2.94035466 L7.38926586,2.85338775 C10.1099184,0.0109149208 13.693896,-0.853189897 15.3943039,0.923355622 Z M12.4344109,10.2390025 L8.89852342,13.2607643 L10.0192287,14.9025783 L12.007557,12.8252204 L12.1055005,12.7160492 C12.6901725,12.0203976 12.7998093,11.0410505 12.4344109,10.2390025 Z M8.48894174,3.63891627 L8.35233351,3.77851648 L3.85639915,9.51985279 C3.73048562,9.6806379 3.72643785,9.90677737 3.83818554,10.0711126 L3.88550698,10.1295929 L6.58261966,12.9474718 C6.72322136,13.0943691 6.93819219,13.1210788 7.10582317,13.0212589 L7.16622802,12.977883 L12.6658175,8.27613469 L12.7747115,8.16020954 C14.8780251,5.86585506 15.4849368,3.12944857 14.549844,1.97820227 L14.4706456,1.88837169 C13.422668,0.79346971 10.730823,1.40792629 8.48894174,3.63891627 Z M4.10701146,4.35941884 L4.00251901,4.46174786 L2.01419072,6.53910577 L3.58435,7.71077425 L6.4787373,4.01619823 C5.71090705,3.63393832 4.77309185,3.74834519 4.10701146,4.35941884 Z" id="Shape" fill-rule="nonzero"></path>
                                    <circle id="Oval-Copy-8" transform="translate(12.270833, 4.136664) rotate(45.000000) translate(-12.270833, -4.136664) " cx="12.2708333" cy="4.13666421" r="1.21438277"></circle>
                                </g>
                                <path d="M2.375,14.0609453 C3.68667628,14.0609453 4.75,15.1718805 4.75,16.5422886 C4.75,17.9126966 3.68667628,19.0236318 2.375,19.0236318 L0,19.0236318 L0,16.5422886 C0,15.1718805 1.06332372,14.0609453 2.375,14.0609453 Z M2.375,15.3016169 C1.75774057,15.3016169 1.25047813,15.7936574 1.19293604,16.4228036 L1.1875,16.5422886 L1.1875,17.7829602 L2.375,17.7829602 C2.99225943,17.7829602 3.49952187,17.2909197 3.55706396,16.6617735 L3.5625,16.5422886 C3.5625,15.8570845 3.03083814,15.3016169 2.375,15.3016169 Z" id="Rectangle-Copy-34" fill-rule="nonzero"></path>
                            </g>
                            <path d="M7.6301306,6.61940243 C7.96960577,6.62683619 8.24303265,6.90026308 8.25046642,7.23973825 L8.4011194,14.1195579 C8.40814624,14.4404501 8.15370806,14.7062811 7.83281583,14.7133079 C7.82433471,14.7134936 7.81585053,14.7134936 7.8073694,14.7133079 C7.46789423,14.7058741 7.19446735,14.4324473 7.18703358,14.0929721 L7.0363806,7.21315243 C7.02935376,6.8922602 7.28379194,6.62642927 7.60468417,6.61940243 C7.61316529,6.61921671 7.62164947,6.61921671 7.6301306,6.61940243 Z" id="Rectangle" transform="translate(7.718750, 10.666355) rotate(45.000000) translate(-7.718750, -10.666355) "></path>
                        </g>
                    </g>
                    <rect id="Rectangle" fill="#9FDFFF" x="63" y="7.31343284" width="91" height="6.26865672" rx="3.13432836"></rect>
                    <rect id="Rectangle" fill="#9FDFFF" x="28" y="7.31343284" width="27" height="6.26865672" rx="3.13432836"></rect>
                </g>
            </g>
            <path d="M32,164.029851 L181,164.029851 C185.418278,164.029851 189,167.611573 189,172.029851 L189,185.283582 C189,189.70186 185.418278,193.283582 181,193.283582 L106.5,193.283582 L32,193.283582 C27.581722,193.283582 24,189.70186 24,185.283582 L24,172.029851 C24,167.611573 27.581722,164.029851 32,164.029851 Z" id="Rectangle" fill="url(#linearGradient-9)"></path>
        </g>
    </g>
</svg>